<?xml version="1.0" encoding="UTF-8"?>
<svg id="Layer_1" xmlns="http://www.w3.org/2000/svg" version="1.1" viewBox="0 0 850.4 892.9">
  <!-- Generator: Adobe Illustrator 29.5.1, SVG Export Plug-In . SVG Version: 2.1.0 Build 141)  -->
  <g>
    <path d="M119.2,349.9L0,298.2l9.9-22.9,99.9,43.3,21.8-50.3,19.3,8.3-31.7,73.2Z"/>
    <path d="M217.9,201.8l-53.7-19.8-17.1,17.2,37,36.7-17.6,17.7-92.3-91.4,31.2-31.5c24.2-24.4,44.5-27,62.1-9.5,12.1,12,13.6,25.9,7.9,39.6l61.9,21.3-19.5,19.7ZM146.5,171.1c6.6-6.7,16.4-19.1,4.6-30.8-11.4-11.3-22-3.5-29.7,4.2l-14.6,14.8,26,25.7,13.7-13.9Z"/>
    <path d="M315.4,143.2l-27.2-127,43.7-9.4c32.9-7,51.7,2.2,57.3,28.4,5.8,27.1-9.6,43.5-40.9,50.2l-18.9,4.1,10.4,48.5-24.4,5.2ZM345.2,65.2c11.3-2.4,23.2-8.1,19.7-24.8-2.7-12.4-12.3-16.6-26.9-13.5l-20.9,4.5,8.1,38,20-4.3Z"/>
    <path d="M503.4,135.7l-4-35.3-41.5-6.5-14.6,32.3-24.9-3.9L477.3,0l33.4,5.3,18.6,134.5-25.9-4.1ZM466.9,74.2l30,4.7-6.4-56h-.4c0,0-23.3,51.2-23.3,51.2Z"/>
    <path d="M615.9,189.8l7.5-56.7-20.6-12.9-27.6,44.2-21.2-13.2,68.9-110.1,37.6,23.5c29.1,18.2,36.1,37.5,22.9,58.5-9,14.4-22.3,18.9-36.9,16.4l-7.2,65-23.5-14.7ZM630.1,113.4c8,5,22.3,11.8,31.1-2.3,8.5-13.7-1.5-22.2-10.6-28l-17.6-11-19.4,31,16.6,10.4Z"/>
    <path d="M658.9,230.2l99.2-83.9,16.1,19.1-99.2,83.9-16.1-19.1Z"/>
    <path d="M812.3,302.9c9.1-9,11.3-18.1,6.5-29.2-4.4-10.3-12.9-15.7-22-11.8-24.3,10.4,16.3,67.1-27.6,86-23.8,10.2-44-2.4-55-28-9.9-23.1-6.9-41.3,12.5-58.4l15.8,18.4c-11.4,8.8-15.2,19.2-9.1,33.3,5.1,12,14.4,18.3,24.8,13.8,26.3-11.3-15.5-68,28.9-87.1,20-8.6,39.9,2.5,49.9,25.7,9.3,21.6,6.5,39-9.4,53.7l-15.3-16.3Z"/>
  </g>
  <g>
    <path d="M730.6,538.9l119.8,50.3-9.7,23-100.4-42.1-21.2,50.5-19.4-8.1,30.9-73.6Z"/>
    <path d="M633.7,688.1l53.9,19.2,16.9-17.4-37.5-36.2,17.4-18,93.4,90.3-30.8,31.9c-23.9,24.7-44.2,27.5-62,10.3-12.2-11.8-13.9-25.7-8.3-39.5l-62.1-20.6,19.2-19.9ZM705.4,718c-6.5,6.8-16.2,19.3-4.2,30.9,11.6,11.2,22.1,3.2,29.6-4.6l14.5-15-26.3-25.4-13.6,14Z"/>
    <path d="M536.8,747.9l28.7,126.7-43.6,9.9c-32.8,7.4-51.8-1.6-57.7-27.8-6.1-27,9-43.6,40.3-50.7l18.9-4.3-10.9-48.4,24.4-5.5ZM508,826.2c-11.3,2.6-23.1,8.4-19.4,25,2.8,12.4,12.5,16.5,27.1,13.2l20.8-4.7-8.6-37.9-19.9,4.5Z"/>
    <path d="M348.4,757.5l4.4,35.2,41.6,6.1,14.3-32.5,24.9,3.7-57.6,122.9-33.5-4.9-20-134.3,26,3.8ZM385.6,818.6l-30.1-4.4,7,55.9h.4c0,0,22.8-51.5,22.8-51.5Z"/>
    <path d="M235.8,704.7l-6.9,56.8,20.7,12.6,27.1-44.5,21.3,13-67.6,110.9-37.8-23.1c-29.3-17.9-36.5-37.1-23.6-58.2,8.8-14.5,22.1-19.2,36.7-16.8l6.4-65.1,23.6,14.4ZM222.4,781.3c-8-4.9-22.4-11.5-31.1,2.7-8.4,13.7,1.7,22.2,11,27.9l17.8,10.8,19-31.2-16.7-10.2Z"/>
    <path d="M192.4,664.9l-98.2,85.1-16.4-18.9,98.2-85.1,16.4,18.9Z"/>
    <path d="M38.1,594c-9,9.2-11.1,18.2-6.2,29.3,4.6,10.3,13.1,15.6,22.2,11.6,24.2-10.7-17-66.9,26.6-86.3,23.7-10.5,44,1.9,55.3,27.3,10.2,23,7.4,41.3-11.8,58.5l-16-18.2c11.3-9,15-19.3,8.7-33.4-5.3-11.9-14.6-18.1-25-13.5-26.1,11.6,16.3,67.9-27.9,87.5-19.9,8.8-39.9-2.1-50.2-25.1-9.6-21.5-7-38.9,8.8-53.8l15.5,16.1Z"/>
  </g>
</svg>